<svg xmlns="http://www.w3.org/2000/svg" width="22.675" height="22.717"><path fill="none" stroke="#fff" stroke-linecap="round" stroke-linejoin="round" stroke-width="1.5" d="M21.924 16.634v3.194a2.129 2.129 0 01-2.321 2.129 21.068 21.068 0 01-9.187-3.268 20.76 20.76 0 01-6.388-6.388A21.068 21.068 0 01.76 3.071 2.129 2.129 0 012.878.75h3.194a2.129 2.129 0 012.129 1.831 13.669 13.669 0 00.745 2.992 2.129 2.129 0 01-.479 2.246L7.115 9.171a17.034 17.034 0 006.388 6.388l1.352-1.352a2.129 2.129 0 012.246-.479 13.669 13.669 0 002.992.745 2.129 2.129 0 011.831 2.161z"/></svg>